Coordinates
version=1
nRows=22
nColumns=34
inDegrees=yes
inDegrees=no

Units are S.I. units (second, meters, Newtons, ...)
If the header above contains a line with 'inDegrees', this indicates whether rotational values are in degrees (yes) or radians (no).

endheader
time	pelvis_tilt	pelvis_list	pelvis_rotation	pelvis_tx	pelvis_ty	pelvis_tz	hip_flexion_r	hip_adduction_r	hip_rotation_r	knee_angle_r	ankle_angle_r	subtalar_angle_r	mtp_angle_r	hip_flexion_l	hip_adduction_l	hip_rotation_l	knee_angle_l	ankle_angle_l	subtalar_angle_l	mtp_angle_l	lumbar_extension	lumbar_bending	lumbar_rotation	arm_flex_r	arm_add_r	arm_rot_r	elbow_flex_r	pro_sup_r	arm_flex_l	arm_add_l	arm_rot_l	elbow_flex_l	pro_sup_l
3.933333 -0.217491 -0.052773 0.081012 0.001729 0.015690 -0.007699 0.703413 -0.270001 -0.310828 1.058253 0.364079 -0.482387 0.000000 0.724392 -0.320810 -0.149036 1.015012 0.328166 -0.280175 0.000000 -0.242205 0.050727 0.013159 0.661456 -0.276905 0.558373 2.036205 1.593091 0.555974 -0.223154 0.559440 2.136353 1.414854
3.950000 -0.224483 -0.052333 0.080326 0.001656 0.015454 -0.007680 0.744101 -0.283632 -0.304209 1.116546 0.401041 -0.456846 0.000000 0.764834 -0.329480 -0.140094 1.068643 0.350699 -0.267484 0.000000 -0.262242 0.046393 0.015340 0.700775 -0.280406 0.557846 2.039853 1.614616 0.604718 -0.224719 0.573337 2.129420 1.434541
3.966667 -0.229800 -0.050232 0.084127 0.001534 0.015178 -0.007674 0.787527 -0.300874 -0.296279 1.180444 0.427890 -0.445485 0.000000 0.810952 -0.332982 -0.127960 1.130761 0.374019 -0.263134 0.000000 -0.283097 0.041558 0.016333 0.742633 -0.286826 0.553362 2.040851 1.652238 0.654572 -0.224878 0.589275 2.113235 1.465987
3.983333 -0.237282 -0.047426 0.084761 0.001452 0.014931 -0.007702 0.834708 -0.317764 -0.284548 1.242087 0.431758 -0.452991 0.000000 0.855014 -0.332472 -0.114810 1.185122 0.398760 -0.259130 0.000000 -0.303544 0.038891 0.013051 0.783409 -0.286189 0.562859 2.045021 1.658375 0.694035 -0.227822 0.597451 2.106118 1.470613
4.000000 -0.239868 -0.045764 0.087183 0.001377 0.014702 -0.007693 0.874102 -0.332686 -0.274049 1.300200 0.438288 -0.455649 0.000000 0.894718 -0.332547 -0.098094 1.239734 0.418403 -0.258063 0.000000 -0.330131 0.036980 0.009281 0.826183 -0.286722 0.577651 2.047177 1.666575 0.737992 -0.232061 0.608178 2.096335 1.476349
4.016667 -0.241731 -0.043492 0.089773 0.001227 0.014522 -0.007699 0.913565 -0.345888 -0.263194 1.349164 0.441879 -0.458835 0.000000 0.932115 -0.328572 -0.083138 1.286181 0.436560 -0.254370 0.000000 -0.363261 0.033866 0.004848 0.871790 -0.289328 0.594364 2.049457 1.676408 0.783823 -0.235440 0.620384 2.090466 1.483267
4.033333 -0.238743 -0.044647 0.093963 0.001093 0.014314 -0.007666 0.944626 -0.352951 -0.252857 1.393967 0.455489 -0.452916 0.000000 0.964587 -0.327364 -0.062534 1.326498 0.442680 -0.252720 0.000000 -0.402011 0.032867 0.002614 0.920299 -0.292437 0.610370 2.050750 1.688815 0.835046 -0.236125 0.633010 2.083514 1.492264
4.050000 -0.240004 -0.044439 0.093929 0.001001 0.014102 -0.007626 0.982757 -0.356523 -0.239883 1.439208 0.463056 -0.454535 0.000000 0.999941 -0.328019 -0.044996 1.368532 0.449648 -0.255066 0.000000 -0.437359 0.029236 0.001478 0.959368 -0.285976 0.603427 2.050303 1.691821 0.873342 -0.230632 0.625349 2.078878 1.494308
4.066667 -0.236646 -0.041976 0.096776 0.000906 0.013855 -0.007621 1.015945 -0.366781 -0.227874 1.488548 0.479959 -0.445433 0.000000 1.031149 -0.325750 -0.029295 1.411724 0.460270 -0.255342 0.000000 -0.480085 0.025273 -0.001642 1.009864 -0.286097 0.616340 2.060461 1.813318 0.926004 -0.233250 0.637620 2.075073 1.583782
4.083333 -0.242708 -0.042330 0.097507 0.000796 0.013507 -0.007609 1.063872 -0.372439 -0.212265 1.541303 0.493481 -0.451562 0.000000 1.085183 -0.323194 -0.007747 1.473812 0.467753 -0.265101 0.000000 -0.506119 0.021611 -0.002657 1.056066 -0.284870 0.625372 2.073702 1.818499 0.972989 -0.235913 0.646688 2.084123 1.589584
4.100000 -0.243772 -0.039940 0.097340 0.000686 0.013403 -0.007624 1.097509 -0.376822 -0.196944 1.578126 0.494107 -0.455106 0.000000 1.117993 -0.317901 0.004375 1.512090 0.464472 -0.275571 0.000000 -0.543260 0.019083 -0.004636 1.103235 -0.284664 0.630409 2.084602 1.826958 1.015517 -0.238299 0.652240 2.091458 1.598663
4.116667 -0.240466 -0.039636 0.098048 0.000540 0.013191 -0.007616 1.132274 -0.380525 -0.182144 1.618752 0.492695 -0.457153 0.000000 1.152064 -0.313395 0.019763 1.554172 0.459674 -0.292185 0.000000 -0.581475 0.017796 -0.006402 1.151049 -0.283588 0.632372 2.090443 1.837032 1.062332 -0.238565 0.659977 2.099067 1.610467
4.133333 -0.240016 -0.039012 0.099227 0.000418 0.012839 -0.007651 1.175541 -0.387845 -0.164195 1.668284 0.494051 -0.464737 0.000000 1.197940 -0.307292 0.034895 1.607656 0.465794 -0.300793 0.000000 -0.609328 0.017455 -0.011281 1.199467 -0.285256 0.633389 2.095706 1.848797 1.108688 -0.239040 0.665834 2.102082 1.625234
4.150000 -0.240836 -0.040497 0.098187 0.000426 0.012564 -0.007602 1.214012 -0.388792 -0.148368 1.715256 0.502537 -0.470517 0.000000 1.238081 -0.310104 0.051933 1.656705 0.467792 -0.302598 0.000000 -0.631315 0.016957 -0.012453 1.236486 -0.279603 0.624625 2.100486 1.854443 1.144500 -0.235935 0.662760 2.105506 1.632852
4.166667 -0.246085 -0.040939 0.097216 0.000335 0.012230 -0.007592 1.260287 -0.390806 -0.130224 1.765639 0.514417 -0.481230 0.000000 1.284513 -0.313636 0.068823 1.709240 0.475907 -0.304122 0.000000 -0.646060 0.015791 -0.014246 1.278011 -0.278704 0.630144 2.113880 1.867237 1.184775 -0.236091 0.668493 2.112761 1.649817
4.183333 -0.250147 -0.044456 0.099187 0.000262 0.011906 -0.007585 1.303235 -0.393945 -0.114656 1.814938 0.525364 -0.489367 0.000000 1.334734 -0.317582 0.089429 1.762830 0.487493 -0.293751 0.000000 -0.656026 0.015678 -0.008930 1.309501 -0.286237 0.619306 2.127067 1.956872 1.218761 -0.220688 0.659304 2.099372 1.777591
4.200000 -0.259398 -0.046128 0.099773 0.000281 0.011581 -0.007508 1.350819 -0.394478 -0.098102 1.866121 0.537643 -0.493108 0.000000 1.385065 -0.328268 0.106500 1.811272 0.488965 -0.287345 0.000000 -0.658057 0.013576 -0.010240 1.336050 -0.280102 0.614828 2.131600 1.958582 1.244472 -0.220487 0.658197 2.102008 1.781595
4.216667 -0.274071 -0.047626 0.097894 0.000178 0.011286 -0.007531 1.407503 -0.395497 -0.080167 1.913537 0.550399 -0.493971 0.000000 1.441073 -0.337387 0.119247 1.859179 0.503956 -0.272027 0.000000 -0.652465 0.011233 -0.009666 1.357000 -0.278695 0.615947 2.138220 1.963291 1.264919 -0.216565 0.657420 2.103421 1.789714
4.233333 -0.285982 -0.049538 0.093715 0.000101 0.011036 -0.007601 1.457442 -0.397352 -0.063439 1.952687 0.556268 -0.486105 0.000000 1.490954 -0.345456 0.128921 1.901461 0.508601 -0.261688 0.000000 -0.652916 0.011595 -0.008080 1.379146 -0.277858 0.613510 2.138488 1.968373 1.284373 -0.208674 0.654792 2.100859 1.797460
4.250000 -0.297097 -0.053477 0.089890 0.000191 0.010766 -0.007624 1.500021 -0.404098 -0.046920 1.992515 0.558104 -0.481980 0.000000 1.536025 -0.357160 0.142553 1.945079 0.517952 -0.248178 0.000000 -0.648281 0.014646 -0.004840 1.387780 -0.278389 0.613769 2.143597 1.976550 1.293535 -0.201121 0.654389 2.100438 1.809633
4.266667 -0.302509 -0.053437 0.086025 0.000092 0.010471 -0.007666 1.541685 -0.408920 -0.027042 2.028796 0.566861 -0.467770 0.000000 1.575172 -0.364254 0.149442 1.987685 0.530298 -0.239577 0.000000 -0.653652 0.013102 -0.000399 1.406287 -0.282839 0.606393 2.153010 2.040912 1.313618 -0.186743 0.649371 2.094905 1.918421
4.283333 -0.309113 -0.054549 0.081976 0.000030 0.010145 -0.007677 1.592307 -0.413516 -0.006010 2.069867 0.569899 -0.463193 0.000000 1.623651 -0.370868 0.162499 2.032859 0.531561 -0.238039 0.000000 -0.654487 0.016414 0.000747 1.433473 -0.282166 0.607400 2.149777 2.041249 1.332325 -0.183196 0.648107 2.095139 1.920821
